<svg width="59" height="62" viewBox="0 0 59 62" fill="none" xmlns="http://www.w3.org/2000/svg">
<path d="M39.7331 42.6084C38.5286 38.794 33.0652 15.9954 24.9945 24.0662C19.483 29.5776 23.1817 35.2405 26.8962 40.8123C29.387 44.5484 32.2801 47.9777 33.4996 52.3814C34.1881 54.8676 33.9821 58.1368 35.0844 60.4639C35.2618 60.8385 38.1296 57.7517 38.3332 57.532C41.2899 54.3419 44.6132 52.7452 48.2383 50.4796C51.2886 48.5731 54.2682 48.1042 56.3472 44.9856C58.2638 42.1107 54.6486 39.2803 52.0418 39.2803C47.2258 39.2803 43.6547 39.0431 39.7331 41.6575M11.1548 23.1266C8.10717 22.3988 5.05738 21.6933 2 21.0139M16.7904 9.74635C16.0161 7.76507 15.3495 5.77575 14.6777 3.7605M32.9863 10.4506C33.716 7.63822 34.4213 4.8236 35.099 2" stroke="#ED798C" stroke-width="3" stroke-linecap="round"/>
</svg>
